<svg width="17" height="14" viewBox="0 0 17 14" fill="none" xmlns="http://www.w3.org/2000/svg">
<g id="Group">
<path id="Vector" d="M15 0.307129H1.66667C0.741667 0.307129 0 0.976453 0 1.81123V10.8358C0 11.6631 0.741667 12.3399 1.66667 12.3399H5V13.844H11.6667V12.3399H15C15.9167 12.3399 16.6667 11.6631 16.6667 10.8358V1.81123C16.6667 0.976453 15.9167 0.307129 15 0.307129ZM15 10.8358H1.66667V1.81123H15V10.8358Z" fill="black"/>
<path id="Vector_2" d="M9.99967 4.25537H3.33301V5.38345H9.99967V4.25537Z" fill="black"/>
<path id="Vector_3" d="M12.083 5.38357H13.333V4.25549H12.083V3.31543H10.833V6.32363H12.083V5.38357Z" fill="black"/>
<path id="Vector_4" d="M13.3337 7.26367H6.66699V8.39175H13.3337V7.26367Z" fill="black"/>
<path id="Vector_5" d="M4.58301 9.33144H5.83301V6.32324H4.58301V7.2633H3.33301V8.39138H4.58301V9.33144Z" fill="black"/>
</g>
</svg>
