<svg width="50" height="51" viewBox="0 0 50 51" fill="none" xmlns="http://www.w3.org/2000/svg">
<g id="Vector" filter="url(#filter0_d_5571_4817)">
<path d="M44.2617 21.7278L29.4152 15.9934L36.8997 4.02308C37.1609 3.66755 37.2825 3.27368 37.2531 2.87832C37.2236 2.48295 37.0442 2.09903 36.7315 1.76246C36.4188 1.42589 35.9832 1.14769 35.4652 0.953884C34.9473 0.760077 34.3641 0.657002 33.7701 0.654303C32.9807 0.653053 32.2137 0.828913 31.5926 1.15355L31.3476 1.29353L5.09221 17.8575C4.69752 18.1073 4.39547 18.4148 4.20998 18.7559C4.02448 19.0969 3.96062 19.462 4.02345 19.8223C4.08628 20.1827 4.27407 20.5283 4.57198 20.8319C4.86988 21.1355 5.26971 21.3887 5.73984 21.5715L20.5899 27.3106L13.0178 39.4186C12.7055 39.9125 12.6582 40.463 12.8837 40.9774C13.1093 41.4919 13.5941 41.9388 14.2563 42.2428C14.9186 42.5469 15.7178 42.6896 16.5195 42.6469C17.3212 42.6041 18.0762 42.3785 18.6575 42.0081L44.9129 25.4395C45.3067 25.1896 45.6079 24.882 45.7927 24.5411C45.9776 24.2002 46.0409 23.8354 45.9777 23.4754C45.9146 23.1154 45.7267 22.7701 45.4288 22.4668C45.131 22.1635 44.7315 21.9105 44.2617 21.7278Z" fill="white"/>
</g>
<defs>
<filter id="filter0_d_5571_4817" x="0" y="0.654297" width="50.0015" height="50" filterUnits="userSpaceOnUse" color-interpolation-filters="sRGB">
<feFlood flood-opacity="0" result="BackgroundImageFix"/>
<feColorMatrix in="SourceAlpha" type="matrix" values="0 0 0 0 0 0 0 0 0 0 0 0 0 0 0 0 0 0 127 0" result="hardAlpha"/>
<feOffset dy="4"/>
<feGaussianBlur stdDeviation="2"/>
<feComposite in2="hardAlpha" operator="out"/>
<feColorMatrix type="matrix" values="0 0 0 0 0 0 0 0 0 0 0 0 0 0 0 0 0 0 0.25 0"/>
<feBlend mode="normal" in2="BackgroundImageFix" result="effect1_dropShadow_5571_4817"/>
<feBlend mode="normal" in="SourceGraphic" in2="effect1_dropShadow_5571_4817" result="shape"/>
</filter>
</defs>
</svg>
