<svg width="37" height="38" viewBox="0 0 37 38" fill="none" xmlns="http://www.w3.org/2000/svg">
<g id="emojione:money-bag" clip-path="url(#clip0_6266_4365)">
<path id="Vector" d="M31.2188 27.7684C31.2188 34.7637 25.5531 34.7637 18.5 34.7637C11.4469 34.7637 5.78125 34.7637 5.78125 27.7684C5.78125 20.773 11.5047 9.32617 18.5 9.32617C25.4953 9.32617 31.2188 20.7152 31.2188 27.7684Z" fill="#DBB471"/>
<g id="Group">
<path id="Vector_2" opacity="0.5" d="M31.2189 27.7684C31.2189 25.398 30.583 22.5074 29.4268 19.7324C29.658 21.5246 29.1955 24.7043 23.7033 25.9184C15.8986 27.5949 19.9455 29.7918 16.8814 30.0809C14.2799 30.3121 7.34238 29.2715 5.95488 25.3402C5.83926 26.2074 5.72363 27.0168 5.72363 27.8262C5.78145 34.7637 11.5049 34.7637 18.5002 34.7637C25.4955 34.7637 31.2189 34.7637 31.2189 27.7684Z" fill="#89664C"/>
<path id="Vector_3" d="M21.9113 24.4153C21.68 23.2591 20.6972 22.9122 19.6566 22.8544V21.2356C19.9456 21.3513 20.2925 21.5247 20.5238 21.6981C20.9863 21.9872 21.4488 21.2356 20.9863 20.9466C20.5816 20.7153 20.1191 20.4841 19.6566 20.3106V18.4028C19.6566 17.8247 18.7894 17.8247 18.7894 18.4028V20.0794C18.3269 20.0216 17.8644 20.0216 17.4019 20.0794C17.3441 19.6747 17.2284 19.27 17.1128 18.8653C16.9972 18.2872 16.13 18.5185 16.3034 19.0966C16.4191 19.5013 16.4769 19.906 16.5925 20.3106C16.5347 20.3106 16.5347 20.3106 16.4769 20.3685C15.3206 20.831 14.5691 21.9872 15.4363 23.0856C15.8409 23.606 16.3613 23.7794 16.9394 23.895C16.9972 24.6466 16.9972 25.3981 16.9972 26.1497C16.5925 25.9185 16.2456 25.5716 15.9566 25.2825C15.5519 24.8778 14.9738 25.5138 15.3206 25.9185C15.8409 26.4966 16.4191 26.9013 16.9972 27.1903C16.9972 27.8263 17.055 28.4622 17.1128 29.0981C17.1706 29.6763 18.0378 29.6763 17.98 29.0981C17.9222 28.52 17.8644 27.9997 17.8644 27.4216C18.2113 27.4794 18.5581 27.4794 18.905 27.4794C18.9628 28.0575 19.0206 28.6356 19.0784 29.2716C19.1363 29.8497 20.0034 29.8497 19.9456 29.2716C19.8878 28.6356 19.83 27.9997 19.7722 27.306C21.0441 26.8435 22.2003 25.8606 21.9113 24.4153ZM18.7894 20.9466V22.8544C18.5003 22.8544 18.2691 22.9122 18.0378 22.9122H17.7488L17.5753 20.831C17.98 20.831 18.3847 20.8888 18.7894 20.9466ZM16.7081 22.7966C16.4769 22.7388 16.2456 22.5653 16.0144 22.3919C15.4941 21.8716 16.2456 21.4091 16.7081 21.1778C16.7659 21.756 16.8238 22.2763 16.8816 22.8544C16.8238 22.8544 16.7659 22.8544 16.7081 22.7966ZM18.6159 26.4966C18.3269 26.5544 18.0956 26.4966 17.8644 26.4388C17.8066 25.5716 17.8066 24.7044 17.8066 23.7794C18.1534 23.7794 18.5003 23.7216 18.8472 23.7216C18.8472 24.6466 18.905 25.5138 18.905 26.4388C18.7894 26.4966 18.7316 26.4966 18.6159 26.4966ZM20.5238 25.8606C20.2925 26.0341 20.0034 26.1497 19.7722 26.2653C19.7144 25.3981 19.7144 24.5888 19.7144 23.7216H20.0034C21.1019 23.9528 21.3909 25.1669 20.5238 25.8606Z" fill="#89664C"/>
</g>
<path id="Vector_4" d="M19.6563 32.4512H18.3267V34.7637L23.7032 37.6543L35.8438 33.8965V31.873L31.3923 29.2715L19.6563 32.4512Z" fill="#00D7B7"/>
<path id="Vector_5" d="M18.5 31.1215C18.5 31.1215 19.8875 33.3762 23.8188 35.3418C23.8188 35.3418 29.9469 35.0527 35.8438 31.1215C35.8438 31.1215 32.4328 29.4449 31.45 27.248C31.45 27.248 29.1375 30.4855 18.5 31.1215Z" fill="#00CAAC"/>
<path id="Vector_6" d="M15.8982 32.3933L17.1701 32.3354L17.3436 34.4745L12.3139 37.6542L0.231055 35.0526L0.0576172 33.1448L4.1623 30.312L15.8982 32.3933Z" fill="#00CAAC"/>
<path id="Vector_7" d="M16.8813 31.0637C16.8813 31.0637 15.6672 33.3184 12.025 35.4574C12.025 35.4574 6.07031 35.6309 0 32.4512C0 32.4512 3.2375 30.6012 3.98906 28.4043C3.98906 28.4043 6.53281 31.2949 16.8813 31.0637Z" fill="#00CAAC"/>
<path id="Vector_8" d="M13.9905 31.6996C13.9905 31.6996 13.8171 32.1621 14.6265 32.2199L12.4874 34.0121C12.4874 34.0121 11.2155 33.8965 10.9265 34.7637C10.9265 34.7637 5.72334 34.1856 2.37021 32.6824C2.37021 32.6824 3.06396 32.1621 2.19678 31.8152C2.19678 31.8152 3.17959 31.1215 3.41084 30.4856C3.41084 30.4856 4.33584 30.6012 4.6249 29.9074C4.74053 29.8496 8.20928 31.9309 13.9905 31.6996Z" stroke="#8FF7E8" stroke-miterlimit="10"/>
<path id="Vector_9" d="M5.0877 32.509C5.69435 32.509 6.18613 32.1725 6.18613 31.7574C6.18613 31.3423 5.69435 31.0059 5.0877 31.0059C4.48105 31.0059 3.98926 31.3423 3.98926 31.7574C3.98926 32.1725 4.48105 32.509 5.0877 32.509Z" fill="#00CAAC"/>
<path id="Vector_10" d="M10.9843 30.8324C10.9843 30.8324 9.65459 32.5667 6.76396 34.9371L6.9374 36.498L4.91396 36.0355L4.79834 34.3589C4.79834 34.3589 7.74678 31.6417 8.38271 30.3121C8.3249 30.3121 9.36553 30.6589 10.9843 30.8324ZM24.339 30.4277C24.339 30.4277 24.8593 31.8152 28.7905 34.3589V36.0355L31.0452 35.3417V33.6074C31.0452 33.6074 28.328 31.6996 26.7093 29.7917L24.339 30.4277Z" fill="#F9F3D9"/>
<path id="Vector_11" d="M21.0438 28.5778L19.7719 28.52L19.6562 30.8903L24.8016 34.1856L36.8844 30.8903L36.9422 28.809L32.7219 25.8606L21.0438 28.5778Z" fill="#00CAAC"/>
<path id="Vector_12" d="M20.0029 27.1324C20.0029 27.1324 21.2748 29.5605 25.0326 31.7574C25.0326 31.7574 31.0451 31.7574 36.9998 28.0574C36.9998 28.0574 33.7045 26.1496 32.8951 23.7793C32.8951 23.7793 30.4092 27.0168 20.0029 27.1324Z" fill="#00CAAC"/>
<path id="Vector_13" d="M22.6047 27.7684C22.6047 27.7684 22.8938 28.2309 21.9688 28.4043L24.3969 30.3122C24.3969 30.3122 25.7844 29.9653 26.2469 30.7747C26.2469 30.7747 32.0281 29.734 34.6875 28.3465C34.6875 28.3465 33.8203 27.9418 34.6875 27.4215C34.6875 27.4215 33.6469 26.5543 33.2422 25.9762C33.2422 25.9762 32.2594 26.2653 31.7391 25.5715C31.7391 25.6293 29.6578 27.4793 22.6047 27.7684Z" stroke="#8FF7E8" stroke-miterlimit="10"/>
<path id="Vector_14" d="M27.0562 29.2136C26.8249 29.5026 26.0733 29.6183 25.4374 29.4448C24.8015 29.2714 24.5124 28.8667 24.7437 28.5776C24.9749 28.2886 25.7265 28.1729 26.3624 28.3464C26.9983 28.5198 27.2874 28.8667 27.0562 29.2136Z" fill="#8FF7E8"/>
<path id="Vector_15" d="M25.8999 26.6699C25.8999 26.6699 27.2874 28.5199 30.2358 31.0058L30.178 32.7402L32.2015 32.1621L32.2593 30.3121C32.2593 30.3121 29.253 27.4214 28.5015 26.0339C28.5593 26.0339 27.5765 26.4386 25.8999 26.6699Z" fill="#F9F3D9"/>
<path id="Vector_16" d="M26.5938 1.81055C26.5938 5.33711 22.0266 11.0605 18.5 11.0605C14.9734 11.0605 10.4062 5.91523 10.4062 2.38867C10.4062 -1.13789 10.9266 2.38867 14.4531 2.38867C14.9734 2.38867 17.4016 0.654297 18.5 0.654297C19.2516 0.654297 21.3906 2.38867 22.5469 2.38867C25.6109 2.38867 26.5938 -0.848828 26.5938 1.81055Z" fill="#DBB471"/>
<path id="Vector_17" d="M17.4592 8.34345C17.1123 8.5747 15.4358 8.40126 14.9155 8.80595C14.2217 9.32626 15.2045 10.5403 14.5108 11.2919C13.1233 12.6794 12.0248 14.2403 12.3717 15.1075C12.9498 16.6106 14.0483 12.3325 15.0311 13.9513C16.0139 15.57 15.8405 12.8528 17.3436 14.2403C18.8467 15.6278 17.5748 11.7544 19.0202 13.431C20.4655 15.1075 20.5233 17.0153 21.5639 17.0153C22.778 17.0153 20.292 12.4481 21.9108 13.5466C23.5295 14.645 25.3217 14.2403 23.703 12.5638C23.1827 12.0435 22.4889 11.1185 21.6795 10.3091C21.3905 10.02 21.6217 8.51689 21.3327 8.28564C20.9858 7.99658 20.1186 8.92158 19.7717 8.74814C19.078 8.40126 19.3092 9.0372 18.2686 9.21064C17.5748 9.44189 18.153 7.88095 17.4592 8.34345Z" fill="#89664C"/>
<path id="Vector_18" d="M10.8112 11.7543C13.0658 9.61527 17.1705 10.8293 19.5986 11.87C21.969 12.9106 23.4143 9.61527 21.9111 7.93871C21.044 6.9559 19.6565 8.11215 19.1361 8.8059C18.558 9.49965 18.0955 10.2512 17.4596 10.945C16.5346 11.9856 14.2799 11.1184 14.9736 9.67309C15.7252 8.16996 18.9049 9.90434 19.9455 10.1934C21.969 10.7715 24.108 11.0028 26.1315 10.2512C26.8252 10.02 26.5361 8.86371 25.8424 9.15277C23.5877 9.96215 21.333 9.44184 19.194 8.74809C18.0955 8.40121 16.3611 7.47621 15.2049 7.99652C11.9096 9.55746 14.9737 14.009 17.7487 12.2746C18.3846 11.87 18.7893 11.234 19.2518 10.6559C19.5408 10.309 20.9861 8.11215 21.333 9.21059C21.5065 9.78871 21.333 10.8293 20.6971 11.0028C20.2924 11.1762 19.483 10.5981 19.0783 10.4825C18.3268 10.1934 17.5752 9.96215 16.7658 9.78871C14.6268 9.32621 11.7362 9.44184 10.0596 11.0028C9.48146 11.4653 10.2908 12.2746 10.8112 11.7543Z" fill="#E8E8E8"/>
<path id="Vector_19" d="M25.9 0.943359C25.3219 1.40586 24.2812 2.38867 22.5469 2.38867C21.3906 2.38867 19.2516 0.654297 18.5 0.654297C17.4016 0.654297 14.9734 2.38867 14.4531 2.38867C12.5453 2.38867 11.5047 1.40586 10.9844 1.00117C10.9844 1.00117 11.6203 3.60273 13.5859 4.93242C15.0312 5.85742 14.8578 4.75898 15.6094 3.71836C16.3609 2.67773 16.8812 2.15742 18.2109 4.75898C18.9047 6.2043 20.2344 0.827734 21.275 2.56211C23.1828 5.7418 23.8766 4.00742 25.9 0.943359Z" fill="#89664C"/>
<path id="Vector_20" d="M30.2936 30.9481L30.2358 32.6825L32.2593 32.1044L32.3171 30.2544C32.3171 30.3122 31.103 30.7747 30.2936 30.9481ZM28.7905 34.4169V36.0935L31.0452 35.3997V33.6653C30.9874 33.6075 30.4093 33.9544 28.7905 34.4169ZM6.76394 34.8794L6.93738 36.4981L4.91394 36.0356L4.79832 34.3591C4.74051 34.3591 5.54988 34.6481 6.76394 34.8794Z" fill="#DBB471"/>
</g>
<defs>
<clipPath id="clip0_6266_4365">
<rect width="37" height="37" fill="white" transform="translate(0 0.654297)"/>
</clipPath>
</defs>
</svg>
