<svg width="50" height="51" viewBox="0 0 50 51" fill="none" xmlns="http://www.w3.org/2000/svg">
<g id="Vector" filter="url(#filter0_d_5571_4820)">
<path d="M25 26.6043L28.8 28.9043C29.1667 29.1376 29.5333 29.1296 29.9 28.8803C30.2667 28.631 30.4 28.289 30.3 27.8543L29.3 23.5043L32.7 20.5543C33.0333 20.2543 33.1333 19.8963 33 19.4803C32.8667 19.0643 32.5667 18.839 32.1 18.8043L27.65 18.4543L25.9 14.3543C25.7333 13.9543 25.4333 13.7543 25 13.7543C24.5667 13.7543 24.2667 13.9543 24.1 14.3543L22.35 18.4543L17.9 18.8043C17.4333 18.8376 17.1333 19.063 17 19.4803C16.8667 19.8976 16.9667 20.2556 17.3 20.5543L20.7 23.5043L19.7 27.8543C19.6 28.2876 19.7333 28.6296 20.1 28.8803C20.4667 29.131 20.8333 29.139 21.2 28.9043L25 26.6043ZM18.3 37.6543H13C11.9 37.6543 10.9587 37.263 10.176 36.4803C9.39333 35.6976 9.00133 34.7556 9 33.6543V28.3543L5.15 24.4543C4.78333 24.0543 4.5 23.613 4.3 23.1303C4.1 22.6476 4 22.1556 4 21.6543C4 21.1543 4.1 20.663 4.3 20.1803C4.5 19.6976 4.78333 19.2556 5.15 18.8543L9 14.9543V9.6543C9 8.5543 9.392 7.61296 10.176 6.8303C10.96 6.04763 11.9013 5.65563 13 5.6543H18.3L22.2 1.8043C22.6 1.43763 23.042 1.1543 23.526 0.954297C24.01 0.754297 24.5013 0.654297 25 0.654297C25.5 0.654297 25.992 0.754297 26.476 0.954297C26.96 1.1543 27.4013 1.43763 27.8 1.8043L31.7 5.6543H37C38.1 5.6543 39.042 6.0463 39.826 6.8303C40.61 7.6143 41.0013 8.55563 41 9.6543V14.9543L44.85 18.8543C45.2167 19.2543 45.5 19.6963 45.7 20.1803C45.9 20.6643 46 21.1556 46 21.6543C46 22.1543 45.9 22.6463 45.7 23.1303C45.5 23.6143 45.2167 24.0556 44.85 24.4543L41 28.3543V33.6543C41 34.7543 40.6087 35.6963 39.826 36.4803C39.0433 37.2643 38.1013 37.6556 37 37.6543H31.7L27.8 41.5043C27.4 41.871 26.9587 42.1543 26.476 42.3543C25.9933 42.5543 25.5013 42.6543 25 42.6543C24.5 42.6543 24.0087 42.5543 23.526 42.3543C23.0433 42.1543 22.6013 41.871 22.2 41.5043L18.3 37.6543ZM20 33.6543L25 38.6543L30 33.6543H37V26.6543L42 21.6543L37 16.6543V9.6543H30L25 4.6543L20 9.6543H13V16.6543L8 21.6543L13 26.6543V33.6543H20Z" fill="white"/>
</g>
<defs>
<filter id="filter0_d_5571_4820" x="0" y="0.654297" width="50" height="50" filterUnits="userSpaceOnUse" color-interpolation-filters="sRGB">
<feFlood flood-opacity="0" result="BackgroundImageFix"/>
<feColorMatrix in="SourceAlpha" type="matrix" values="0 0 0 0 0 0 0 0 0 0 0 0 0 0 0 0 0 0 127 0" result="hardAlpha"/>
<feOffset dy="4"/>
<feGaussianBlur stdDeviation="2"/>
<feComposite in2="hardAlpha" operator="out"/>
<feColorMatrix type="matrix" values="0 0 0 0 0 0 0 0 0 0 0 0 0 0 0 0 0 0 0.25 0"/>
<feBlend mode="normal" in2="BackgroundImageFix" result="effect1_dropShadow_5571_4820"/>
<feBlend mode="normal" in="SourceGraphic" in2="effect1_dropShadow_5571_4820" result="shape"/>
</filter>
</defs>
</svg>
