<svg width="109" height="109" viewBox="0 0 109 109" fill="none" xmlns="http://www.w3.org/2000/svg">
<g id="Group 7">
<path id="Fill 1" fill-rule="evenodd" clip-rule="evenodd" d="M109 55.024C109 84.8343 84.5997 109 54.5 109C24.4003 109 0 84.8343 0 55.024C0 25.2137 24.4003 1.04807 54.5 1.04807C84.5997 1.04807 109 25.2137 109 55.024Z" fill="#FF3A29"/>
<path id="Fill 3" fill-rule="evenodd" clip-rule="evenodd" d="M54.5 53.9059L18.4419 94.3269C6.72278 84.0994 0 69.3645 0 53.9059C0 24.3339 24.6021 0 54.5 0C84.3979 0 109 24.3339 109 53.9059H54.5Z" fill="#FFB200"/>
<path id="Fill 5" fill-rule="evenodd" clip-rule="evenodd" d="M54 53.6146L30.7456 102.712C11.9927 93.6978 0 74.5468 0 53.6146C0 33.2645 11.3353 14.5491 29.2987 5.24039L54 53.6146Z" fill="#4339F2"/>
</g>
</svg>
