<svg width="50" height="51" viewBox="0 0 50 51" fill="none" xmlns="http://www.w3.org/2000/svg">
<g id="Vector" filter="url(#filter0_d_5571_4815)">
<path d="M22.8088 8.52765H29.3846L36.5962 1.30198C36.8 1.09675 37.0424 0.933855 37.3095 0.822692C37.5766 0.711529 37.8631 0.654297 38.1525 0.654297C38.4419 0.654297 38.7284 0.711529 38.9955 0.822692C39.2626 0.933855 39.505 1.09675 39.7088 1.30198L45.364 6.97304C45.7723 7.38329 46.0015 7.93824 46.0015 8.5167C46.0015 9.09517 45.7723 9.65012 45.364 10.0604L40.3445 15.0964H22.8088V19.4756C22.8088 20.0564 22.5778 20.6133 22.1668 21.0239C21.7557 21.4346 21.1981 21.6652 20.6168 21.6652C20.0355 21.6652 19.4779 21.4346 19.0669 21.0239C18.6558 20.6133 18.4248 20.0564 18.4248 19.4756V12.9069C18.4248 11.7454 18.8867 10.6315 19.7089 9.81029C20.531 8.98903 21.6461 8.52765 22.8088 8.52765ZM9.657 19.4756V28.234L4.63741 33.2482C4.22915 33.6585 4 34.2134 4 34.7919C4 35.3704 4.22915 35.9253 4.63741 36.3356L10.2927 42.0066C10.4964 42.2118 10.7389 42.3747 11.006 42.4859C11.2731 42.5971 11.5596 42.6543 11.849 42.6543C12.1383 42.6543 12.4248 42.5971 12.6919 42.4859C12.959 42.3747 13.2015 42.2118 13.4052 42.0066L22.8088 32.6132H31.5766C32.158 32.6132 32.7155 32.3826 33.1266 31.9719C33.5376 31.5613 33.7686 31.0044 33.7686 30.4236V28.234H35.9605C36.5419 28.234 37.0994 28.0034 37.5105 27.5927C37.9216 27.1821 38.1525 26.6252 38.1525 26.0444V23.8548H40.3445C40.9258 23.8548 41.4833 23.6242 41.8944 23.2135C42.3055 22.8029 42.5364 22.246 42.5364 21.6652V19.4756H27.1927V21.6652C27.1927 22.8267 26.7308 23.9405 25.9087 24.7618C25.0865 25.5831 23.9715 26.0444 22.8088 26.0444H18.4248C17.2622 26.0444 16.1471 25.5831 15.3249 24.7618C14.5028 23.9405 14.0409 22.8267 14.0409 21.6652V15.0964L9.657 19.4756Z" fill="white"/>
</g>
<defs>
<filter id="filter0_d_5571_4815" x="0" y="0.654297" width="50.0015" height="50" filterUnits="userSpaceOnUse" color-interpolation-filters="sRGB">
<feFlood flood-opacity="0" result="BackgroundImageFix"/>
<feColorMatrix in="SourceAlpha" type="matrix" values="0 0 0 0 0 0 0 0 0 0 0 0 0 0 0 0 0 0 127 0" result="hardAlpha"/>
<feOffset dy="4"/>
<feGaussianBlur stdDeviation="2"/>
<feComposite in2="hardAlpha" operator="out"/>
<feColorMatrix type="matrix" values="0 0 0 0 0 0 0 0 0 0 0 0 0 0 0 0 0 0 0.25 0"/>
<feBlend mode="normal" in2="BackgroundImageFix" result="effect1_dropShadow_5571_4815"/>
<feBlend mode="normal" in="SourceGraphic" in2="effect1_dropShadow_5571_4815" result="shape"/>
</filter>
</defs>
</svg>
