<svg width="40" height="29" viewBox="0 0 40 29" fill="none" xmlns="http://www.w3.org/2000/svg">
<g id="logos:customerio-icon" clip-path="url(#clip0_6266_4387)">
<path id="Vector" d="M19.9757 16.5868C21.5584 16.5868 23.1056 16.1195 24.4215 15.244C25.7374 14.3685 26.763 13.1242 27.3685 11.6684C27.974 10.2126 28.1323 8.61068 27.8232 7.06533C27.5142 5.51997 26.7517 4.10057 25.6323 2.98666C24.5129 1.87274 23.0868 1.11435 21.5344 0.807398C19.982 0.50045 18.373 0.658736 16.911 1.26224C15.449 1.86574 14.1996 2.88734 13.3208 4.19783C12.442 5.50833 11.9734 7.04884 11.9741 8.62452C11.9741 9.67046 12.1811 10.7061 12.5833 11.6724C12.9854 12.6387 13.5749 13.5166 14.318 14.256C15.061 14.9954 15.9431 15.5818 16.9139 15.9818C17.8847 16.3817 18.9251 16.5873 19.9757 16.5868Z" fill="#FFCD00"/>
<path id="Vector_2" d="M20.0252 20.5679H19.9984C14.5098 20.5665 9.72078 16.8604 8.36516 11.5656C7.96344 9.97302 6.66234 8.62451 5.01297 8.62451H0C0 19.6201 8.95359 28.5341 19.9984 28.5341H20.0252V20.5679Z" fill="#00ECBB"/>
<path id="Vector_3" d="M19.9756 20.5679H19.9986C25.4876 20.5679 30.2775 16.8612 31.6317 11.5656C32.0375 9.97302 33.3384 8.62451 34.9879 8.62451H40.0007C39.9987 19.6207 31.044 28.5341 19.9986 28.5341H19.9756V20.5679Z" fill="#AF64FF"/>
<path id="Vector_4" d="M34.1422 22.7012C32.2851 24.5502 30.0804 26.0168 27.654 27.0175C25.2276 28.0181 22.6269 28.5332 20.0005 28.5332C17.3742 28.5332 14.7735 28.0181 12.3471 27.0175C9.92062 26.0168 7.71594 24.5502 5.85889 22.7012L11.5147 17.0706C16.2022 21.7341 23.7987 21.7341 28.4862 17.0706L34.1422 22.7012Z" fill="#7131FF"/>
</g>
<defs>
<clipPath id="clip0_6266_4387">
<rect width="40" height="28" fill="white" transform="translate(0 0.654297)"/>
</clipPath>
</defs>
</svg>
