<svg width="37" height="38" viewBox="0 0 37 38" fill="none" xmlns="http://www.w3.org/2000/svg">
<g id="logos:google-tag-manager" clip-path="url(#clip0_6266_4404)">
<path id="Vector" d="M21.7175 36.1391L15.2949 29.8764L29.088 15.7913L35.7374 22.3083L21.7175 36.1391Z" fill="#88FFED"/>
<path id="Vector_2" d="M21.7447 8.45008L15.3458 1.91626L1.35281 15.7765C-0.450938 17.5803 -0.450938 20.5046 1.35281 22.3103L15.1353 36.1833L21.6522 30.0867L11.1515 19.0435L21.7447 8.45008Z" fill="#88FFED"/>
<path id="Vector_3" d="M35.645 15.8836L21.77 2.00863C19.9642 0.202854 17.0357 0.202854 15.2299 2.00863C13.424 3.81455 13.424 6.74304 15.2299 8.54896L29.1049 22.424C30.9107 24.2297 33.8392 24.2297 35.645 22.424C37.4509 20.618 37.4509 17.6894 35.645 15.8836Z" fill="#00CAAC"/>
<path id="Vector_4" d="M18.3939 37.6548C20.8902 37.6548 22.9139 35.6312 22.9139 33.1349C22.9139 30.6386 20.8902 28.615 18.3939 28.615C15.8977 28.615 13.874 30.6386 13.874 33.1349C13.874 35.6312 15.8977 37.6548 18.3939 37.6548Z" fill="#00CAAC"/>
</g>
<defs>
<clipPath id="clip0_6266_4404">
<rect width="37" height="37" fill="white" transform="translate(0 0.654297)"/>
</clipPath>
</defs>
</svg>
