<svg width="27" height="30" viewBox="0 0 27 30" fill="none" xmlns="http://www.w3.org/2000/svg">
<g id="logos:growth-book-icon" clip-path="url(#clip0_6266_4392)">
<path id="Vector" d="M8.8229 10.9935L26.9999 0.654297C26.9999 0.654297 25.2863 2.17818 25.3616 5.47683C25.4419 8.99233 26.9999 10.2996 26.9999 10.2996L24.864 9.31581L8.14326 15.9328C8.14326 15.9328 7.73731 14.7829 7.73067 13.9164C7.71348 11.7782 8.8229 10.9935 8.8229 10.9935Z" fill="#00CAAC"/>
<path id="Vector_2" d="M4.95581 17.7527L24.8156 10.4089C24.8156 10.4089 23.1018 11.9328 23.1772 15.2317C23.2576 18.7471 24.8155 20.0542 24.8155 20.0542L22.0409 18.9745L4.21563 22.5217C4.21563 22.5217 3.87001 21.4619 3.86347 20.6755C3.8466 18.5373 4.95581 17.7527 4.95581 17.7527Z" fill="#00CAAC"/>
<path id="Vector_3" d="M1.09253 23.7081L22.0464 19.9082C22.0464 19.9082 20.3328 21.432 20.4081 24.7307C20.4884 28.2461 22.0464 29.5534 22.0464 29.5534H1.24894C1.24894 29.5534 0.0186476 28.7979 0.000190611 26.5212C-0.0166844 24.3828 1.09253 23.7081 1.09253 23.7081Z" fill="#00CAAC"/>
</g>
<defs>
<clipPath id="clip0_6266_4392">
<rect width="27" height="29" fill="white" transform="translate(0 0.654297)"/>
</clipPath>
</defs>
</svg>
