<svg width="31" height="29" viewBox="0 0 31 29" fill="none" xmlns="http://www.w3.org/2000/svg">
<path id="Vector" d="M1 27.3954C1.01416 26.1341 1.38266 24.8966 2.071 23.7988C2.79516 22.6566 3.83881 21.7058 5.09766 21.0416C6.35651 20.3774 7.78647 20.023 9.24466 20.0137C12.186 20.0198 14.9701 21.4868 16.4183 23.7988C17.1063 24.896 17.4748 26.1328 17.4893 27.3934M22.0248 2.88566V1.22412M28.3093 4.92612L29.8159 3.97175M15.7357 4.92612L14.2269 3.97175M9.24241 16.484C9.79884 16.4956 10.3522 16.4068 10.8701 16.2227C11.3879 16.0385 11.8597 15.7629 12.2578 15.4118C12.6559 15.0608 12.9723 14.6415 13.1882 14.1786C13.4042 13.7156 13.5155 13.2184 13.5155 12.7161C13.5155 12.2138 13.4042 11.7166 13.1882 11.2537C12.9723 10.7907 12.6559 10.3714 12.2578 10.0204C11.8597 9.66938 11.3879 9.39371 10.8701 9.20959C10.3522 9.02547 9.79884 8.93662 9.24241 8.94827C8.15187 8.97109 7.11451 9.37808 6.35217 10.0822C5.58983 10.7863 5.16302 11.7317 5.16302 12.7161C5.16302 13.7006 5.58983 14.6459 6.35217 15.35C7.11451 16.0542 8.15187 16.4611 9.24241 16.484ZM26.5894 10.3322C26.5856 9.78384 26.4618 9.24154 26.2251 8.73647C25.9885 8.23139 25.6436 7.77348 25.2102 7.38902C24.7769 7.00456 24.2637 6.70113 23.7001 6.49615C23.1365 6.29117 22.5336 6.18868 21.926 6.19457C21.3186 6.21157 20.7209 6.33668 20.1672 6.56271C19.6136 6.78875 19.1149 7.11126 18.6997 7.51172C18.2845 7.91219 17.9611 8.38272 17.748 8.8963C17.5349 9.40987 17.4363 9.95638 17.4579 10.5044C17.5019 11.2374 17.7587 11.9471 18.2024 12.5624C18.6461 13.1776 19.2612 13.6768 19.9861 14.0099V16.0362C19.9901 16.1553 20.0453 16.2684 20.14 16.3516C20.2346 16.4347 20.3614 16.4815 20.4935 16.4819H23.5493C23.6818 16.482 23.8091 16.4355 23.9043 16.3523C23.9994 16.2691 24.0549 16.1557 24.059 16.0362V13.9734C24.8059 13.6292 25.4357 13.109 25.8816 12.4679C26.3274 11.8269 26.5706 11.0889 26.5894 10.3322Z" stroke="#00CAAC" stroke-width="2" stroke-linecap="round" stroke-linejoin="round"/>
</svg>
