<svg width="164" height="48" viewBox="0 0 164 48" fill="none" xmlns="http://www.w3.org/2000/svg">
<g id="Raize GRADIENT 1" clip-path="url(#clip0_5781_45263)">
<g id="Layer_x0020_1">
<g id="_2605074955648">
<g id="Group">
<path id="Vector" fill-rule="evenodd" clip-rule="evenodd" d="M47.7373 47.3216H55.9726V33.0741C61.1611 33.0741 60.9867 32.8731 64.5675 39.4665C65.87 41.8646 67.7227 44.9557 68.8701 47.3216H78.3484L70.5341 33.6325C70.259 33.1884 69.9325 32.3646 69.1808 31.8872C72.1433 31.1982 73.3674 29.8648 74.5829 28.1161C77.2707 24.9835 77.6781 17.77 75.9677 13.793C74.0011 9.22037 69.9483 6.78442 64.8295 6.78442H47.7373V47.3216ZM55.7011 14.3848L63.6323 14.4731C66.1645 14.5064 68.6565 15.8865 68.6499 19.5087C68.7343 22.7996 67.7563 25.4826 63.9054 25.5714L55.7011 25.5603V14.3848Z" fill="#403C88"/>
<path id="Vector_2" fill-rule="evenodd" clip-rule="evenodd" d="M136.463 29.6822C136.463 35.4178 136.688 39.0595 139.88 43.5917C141.771 46.2769 146.006 48 149.36 48C153.103 48 155.405 47.819 158.562 45.6623C159.797 44.8185 162.697 41.7808 163.034 40.1981L156.509 36.6352C156.049 37.5845 155.147 38.5388 154.272 39.1134C153.779 39.4365 153.296 39.6674 152.768 39.8462C150.045 40.7682 146.238 40.1043 145.029 36.6153C144.612 35.4106 144.553 34.2965 144.389 33.9223H163.501C163.501 26.8482 163.372 18.9969 156.947 15.635C154.234 14.216 152.353 14.2471 149.361 14.2471C141.163 14.2471 136.464 20.9754 136.464 29.6816L136.463 29.6822ZM144.513 26.6972L155.557 26.5839C155.557 25.13 153.921 21.8231 149.915 21.9485C146.294 22.074 144.554 24.7165 144.513 26.6972Z" fill="#403C88"/>
<path id="Vector_3" fill-rule="evenodd" clip-rule="evenodd" d="M77.2606 22.5586L84.253 26.4596C84.756 25.4215 85.1496 24.5266 86.0238 23.8132C88.3628 21.9041 94.0425 21.5511 94.0425 26.2903V27.9862C89.4369 27.9862 83.5496 27.2928 79.8564 30.3106C76.1845 33.3105 75.7664 39.0112 77.789 42.6751C79.6453 46.0376 83.8502 48.0006 87.8272 48.0006C91.994 48.0006 95.3709 47.844 98.5287 45.2643C100.459 43.6871 102.123 40.7832 102.123 37.1454V26.1204C102.123 18.5539 97.717 14.2477 91.2459 14.2477C87.5084 14.2477 84.5617 14.2938 81.5657 16.7414C80.6594 17.4819 79.7806 18.3862 79.1225 19.3322L77.2611 22.5581L77.2606 22.5586ZM94.1031 34.8699L94.0827 36.7252C94.13 39.3682 91.0867 39.9228 88.8078 39.9266C87.0725 39.8756 84.6293 39.4931 84.6543 37.2553C84.671 36.0623 85.4771 35.1242 87.5272 35.0026L94.1025 34.8699H94.1031Z" fill="#403C88"/>
<path id="Vector_4" fill-rule="evenodd" clip-rule="evenodd" d="M113.569 22.7429L126.052 22.7279L113.613 39.463L113.559 47.3215H136.618V39.3498H123.566L136.463 21.7103V14.7561H113.465L113.569 22.7429Z" fill="#403C88"/>
<path id="Vector_5" fill-rule="evenodd" clip-rule="evenodd" d="M103.832 47.3215H111.912V14.7561H103.832V47.3215Z" fill="#403C88"/>
<path id="Vector_6" fill-rule="evenodd" clip-rule="evenodd" d="M102.588 5.25826C102.588 8.04005 103.064 10.4432 105.902 11.4791C110.638 13.2073 114.325 8.65792 112.776 3.63615C112.058 1.30846 110.379 0.234823 108.637 0H107.111C105.926 0.154883 104.838 0.657837 104.153 1.36952C104.13 1.39339 104.098 1.42948 104.075 1.4539C103.269 2.33491 102.588 3.56953 102.588 5.2577L102.588 5.25826Z" fill="#403C88"/>
<path id="Vector_7" fill-rule="evenodd" clip-rule="evenodd" d="M6.09375 37.6472C7.08547 36.9222 7.72373 36.5369 9.02466 36.0967C9.46712 35.9468 10.3256 35.7198 10.7945 35.6543C12.5847 35.4033 13.1273 35.3778 14.8911 35.677C16.0771 35.878 17.2834 36.3476 18.3509 36.8195C18.9647 37.0904 19.3187 37.4934 19.9234 37.6472C19.3426 36.7001 18.7939 35.7125 18.2141 34.7638L14.6403 28.8272C14.2833 28.2426 13.0658 26.3246 12.931 25.7739C12.395 26.1659 7.69016 34.5856 6.92069 36.0045C6.59164 36.6119 6.23971 36.9644 6.09426 37.6466L6.09375 37.6472Z" fill="#37337A"/>
<path id="Vector_8" fill-rule="evenodd" clip-rule="evenodd" d="M6.94414 6.78437H30.8486C34.3929 6.78437 37.2928 9.94976 37.2928 13.8185V40.1214C37.2928 43.9902 34.3929 47.1556 30.8486 47.1556H23.2694C23.1422 47.039 23.0034 46.9296 22.8503 46.8325C26.5237 45.9781 28.0413 44.3249 29.5492 42.1566C32.8819 38.2723 33.3874 29.3274 31.2667 24.3961C28.8276 18.7259 23.8029 15.706 17.4559 15.706H0.5V13.818C0.5 9.9492 3.39989 6.78381 6.94414 6.78381V6.78437Z" fill="#3C3781"/>
</g>
<g id="Group_2">
<path id="Vector_9" fill-rule="evenodd" clip-rule="evenodd" d="M47.7373 47.3216H55.9726V33.0741C61.1611 33.0741 60.9867 32.8731 64.5675 39.4665C65.87 41.8646 67.7227 44.9557 68.8701 47.3216H78.3484L70.5341 33.6325C70.259 33.1884 69.9325 32.3646 69.1808 31.8872C72.1433 31.1982 73.3674 29.8648 74.5829 28.1161C77.2707 24.9835 77.6781 17.77 75.9677 13.793C74.0011 9.22037 69.9483 6.78442 64.8295 6.78442H47.7373V47.3216ZM55.7011 14.3848L63.6323 14.4731C66.1645 14.5064 68.6565 15.8865 68.6499 19.5087C68.7343 22.7996 67.7563 25.4826 63.9054 25.5714L55.7011 25.5603V14.3848Z" fill="#403C88"/>
<path id="Vector_10" fill-rule="evenodd" clip-rule="evenodd" d="M136.463 29.6822C136.463 35.4178 136.688 39.0595 139.88 43.5917C141.771 46.2769 146.006 48 149.36 48C153.103 48 155.405 47.819 158.562 45.6623C159.797 44.8185 162.697 41.7808 163.034 40.1981L156.509 36.6352C156.049 37.5845 155.147 38.5388 154.272 39.1134C153.779 39.4365 153.296 39.6674 152.768 39.8462C150.045 40.7682 146.238 40.1043 145.029 36.6153C144.612 35.4106 144.553 34.2965 144.389 33.9223H163.501C163.501 26.8482 163.372 18.9969 156.947 15.635C154.234 14.216 152.353 14.2471 149.361 14.2471C141.163 14.2471 136.464 20.9754 136.464 29.6816L136.463 29.6822ZM144.513 26.6972L155.557 26.5839C155.557 25.13 153.921 21.8231 149.915 21.9485C146.294 22.074 144.554 24.7165 144.513 26.6972Z" fill="#403C88"/>
<path id="Vector_11" fill-rule="evenodd" clip-rule="evenodd" d="M77.2606 22.5586L84.253 26.4596C84.756 25.4215 85.1496 24.5266 86.0238 23.8132C88.3628 21.9041 94.0425 21.5511 94.0425 26.2903V27.9862C89.4369 27.9862 83.5496 27.2928 79.8564 30.3106C76.1845 33.3105 75.7664 39.0112 77.789 42.6751C79.6453 46.0376 83.8502 48.0006 87.8272 48.0006C91.994 48.0006 95.3709 47.844 98.5287 45.2643C100.459 43.6871 102.123 40.7832 102.123 37.1454V26.1204C102.123 18.5539 97.717 14.2477 91.2459 14.2477C87.5084 14.2477 84.5617 14.2938 81.5657 16.7414C80.6594 17.4819 79.7806 18.3862 79.1225 19.3322L77.2611 22.5581L77.2606 22.5586ZM94.1031 34.8699L94.0827 36.7252C94.13 39.3682 91.0867 39.9228 88.8078 39.9266C87.0725 39.8756 84.6293 39.4931 84.6543 37.2553C84.671 36.0623 85.4771 35.1242 87.5272 35.0026L94.1025 34.8699H94.1031Z" fill="#403C88"/>
<path id="Vector_12" fill-rule="evenodd" clip-rule="evenodd" d="M113.569 22.7429L126.052 22.7279L113.613 39.463L113.559 47.3215H136.618V39.3498H123.566L136.463 21.7103V14.7561H113.465L113.569 22.7429Z" fill="#403C88"/>
<path id="Vector_13" fill-rule="evenodd" clip-rule="evenodd" d="M103.832 47.3215H111.912V14.7561H103.832V47.3215Z" fill="#403C88"/>
<path id="Vector_14" fill-rule="evenodd" clip-rule="evenodd" d="M102.588 5.25826C102.588 8.04005 103.064 10.4432 105.902 11.4791C110.638 13.2073 114.325 8.65792 112.776 3.63615C112.058 1.30846 110.379 0.234823 108.637 0H107.111C105.926 0.154883 104.838 0.657837 104.153 1.36952C104.13 1.39339 104.098 1.42948 104.075 1.4539C103.269 2.33491 102.588 3.56953 102.588 5.2577L102.588 5.25826Z" fill="#403C88"/>
<path id="Vector_15" fill-rule="evenodd" clip-rule="evenodd" d="M6.09375 37.6472C7.08547 36.9222 7.72373 36.5369 9.02466 36.0967C9.46712 35.9468 10.3256 35.7198 10.7945 35.6543C12.5847 35.4033 13.1273 35.3778 14.8911 35.677C16.0771 35.878 17.2834 36.3476 18.3509 36.8195C18.9647 37.0904 19.3187 37.4934 19.9234 37.6472C19.3426 36.7001 18.7939 35.7125 18.2141 34.7638L14.6403 28.8272C14.2833 28.2426 13.0658 26.3246 12.931 25.7739C12.395 26.1659 7.69016 34.5856 6.92069 36.0045C6.59164 36.6119 6.23971 36.9644 6.09426 37.6466L6.09375 37.6472Z" fill="#37337A"/>
<path id="Vector_16" fill-rule="evenodd" clip-rule="evenodd" d="M6.94414 6.78437H30.8486C34.3929 6.78437 37.2928 9.94976 37.2928 13.8185V40.1214C37.2928 43.9902 34.3929 47.1556 30.8486 47.1556H23.2694C23.1422 47.039 23.0034 46.9296 22.8503 46.8325C26.5237 45.9781 28.0413 44.3249 29.5492 42.1566C32.8819 38.2723 33.3874 29.3274 31.2667 24.3961C28.8276 18.7259 23.8029 15.706 17.4559 15.706H0.5V13.818C0.5 9.9492 3.39989 6.78381 6.94414 6.78381V6.78437Z" fill="#3C3781"/>
</g>
<g id="Group_3">
<path id="Vector_17" fill-rule="evenodd" clip-rule="evenodd" d="M47.7373 47.3215H55.9726V33.074C61.1611 33.074 60.9867 32.873 64.5675 39.4664C65.87 41.8645 67.7227 44.9555 68.8701 47.3215H78.3484L70.5341 33.6324C70.259 33.1883 69.9325 32.3645 69.1808 31.8871C72.1433 31.1981 73.3674 29.8647 74.5829 28.116C74.8265 27.8318 75.0513 27.5137 75.2578 27.1678L47.7373 30.3332V47.3215Z" fill="#5955A3"/>
<path id="Vector_18" fill-rule="evenodd" clip-rule="evenodd" d="M136.462 29.6821C136.462 35.4177 136.688 39.0594 139.88 43.5916C141.77 46.2768 146.006 47.9999 149.36 47.9999C153.103 47.9999 155.405 47.8189 158.561 45.6622C159.796 44.8184 162.696 41.7807 163.034 40.198L156.508 36.6352C156.048 37.5844 155.147 38.5387 154.271 39.1133C153.778 39.4364 153.295 39.6673 152.767 39.8461C150.045 40.7681 146.238 40.1042 145.029 36.6152C144.611 35.4105 144.553 34.2964 144.388 33.9222H163.501C163.501 27.9334 163.407 21.3883 159.48 17.4807L139.034 19.8328C137.354 22.4808 136.464 25.8938 136.464 29.6821H136.462ZM144.513 26.6971L155.556 26.5838C155.556 25.1299 153.921 21.823 149.915 21.9485C146.293 22.0739 144.553 24.7164 144.513 26.6971Z" fill="#5955A3"/>
<path id="Vector_19" fill-rule="evenodd" clip-rule="evenodd" d="M83.7688 26.1891L84.253 26.4595L84.4193 26.1142L83.7683 26.1891H83.7688ZM93.8823 25.0255C93.9856 25.3992 94.0425 25.8188 94.0425 26.2896V27.9855C89.4369 27.9855 83.5496 27.2922 79.8564 30.3099C76.1845 33.3099 75.7664 39.0106 77.789 42.6745C79.6453 46.0369 83.8502 47.9999 87.8272 47.9999C91.994 47.9999 95.3709 47.8434 98.5287 45.2636C100.459 43.6865 102.123 40.7826 102.123 37.1447V26.1197C102.123 25.4147 102.085 24.738 102.01 24.0907L93.8828 25.0255H93.8823ZM94.1031 34.8692L94.0827 36.7245C94.13 39.3675 91.0867 39.9221 88.8078 39.926C87.0725 39.8749 84.6293 39.4924 84.6543 37.2547C84.671 36.0617 85.4771 35.1235 87.5272 35.0019L94.1025 34.8692H94.1031Z" fill="#5955A3"/>
<path id="Vector_20" fill-rule="evenodd" clip-rule="evenodd" d="M113.735 22.7423L126.052 22.7279L113.613 39.463L113.56 47.3216H136.618V39.3498H123.566L136.463 21.7103V20.1282L113.735 22.7423Z" fill="#5955A3"/>
<path id="Vector_21" fill-rule="evenodd" clip-rule="evenodd" d="M103.832 47.3215H111.912V22.9521L103.832 23.8814V47.3215Z" fill="#5955A3"/>
<path id="Vector_22" fill-rule="evenodd" clip-rule="evenodd" d="M6.09375 37.6472C7.08547 36.9222 7.72373 36.5369 9.02466 36.0967C9.46712 35.9468 10.3256 35.7197 10.7945 35.6542C12.5847 35.4033 13.1273 35.3778 14.8911 35.677C16.0771 35.878 17.2834 36.3476 18.3509 36.8195C18.9647 37.0904 19.3187 37.4934 19.9234 37.6472C19.3426 36.7001 18.7939 35.7125 18.2141 34.7638L17.6318 33.7968L7.49487 34.9625C7.23499 35.4305 7.0341 35.7952 6.92018 36.0051C6.59114 36.6124 6.2392 36.9649 6.09375 37.6472Z" fill="#5955A3"/>
<path id="Vector_23" fill-rule="evenodd" clip-rule="evenodd" d="M37.2931 31.5345V40.122C37.2931 43.9907 34.3932 47.1561 30.8489 47.1561H23.2697C23.1425 47.0395 23.0037 46.9302 22.8506 46.833C26.524 45.9787 28.0416 44.3255 29.5495 42.1571C31.4791 39.9082 32.4606 35.9629 32.5338 32.0819L37.2936 31.5345H37.2931Z" fill="#5955A3"/>
</g>
</g>
</g>
</g>
<defs>
<clipPath id="clip0_5781_45263">
<rect width="163" height="48" fill="white" transform="translate(0.5)"/>
</clipPath>
</defs>
</svg>
