<svg width="12" height="11" viewBox="0 0 12 11" fill="none" xmlns="http://www.w3.org/2000/svg">
<path id="Vector" d="M6 0C2.688 0 0 2.42581 0 5.41476C0 8.4037 2.688 10.8295 6 10.8295C9.312 10.8295 12 8.4037 12 5.41476C12 2.42581 9.312 0 6 0ZM6 9.74656C3.354 9.74656 1.2 7.80266 1.2 5.41476C1.2 3.02685 3.354 1.08295 6 1.08295C8.646 1.08295 10.8 3.02685 10.8 5.41476C10.8 7.80266 8.646 9.74656 6 9.74656ZM8.754 3.02143L4.8 6.58976L3.246 5.19275L2.4 5.95623L4.8 8.12214L9.6 3.79033L8.754 3.02143Z" fill="#00CAAC"/>
</svg>
