<svg width="16" height="15" viewBox="0 0 16 15" fill="none" xmlns="http://www.w3.org/2000/svg">
<path id="Vector" d="M15 3.70901V1.99433C15 1.16708 14.25 0.490234 13.3333 0.490234H1.66667C0.741667 0.490234 0 1.16708 0 1.99433V12.523C0 13.3503 0.741667 14.0271 1.66667 14.0271H13.3333C14.25 14.0271 15 13.3503 15 12.523V10.8084C15.4917 10.5451 15.8333 10.0713 15.8333 9.51483V5.00253C15.8333 4.44601 15.4917 3.97222 15 3.70901ZM14.1667 5.00253V9.51483H8.33333V5.00253H14.1667ZM1.66667 12.523V1.99433H13.3333V3.49843H8.33333C7.41667 3.49843 6.66667 4.17528 6.66667 5.00253V9.51483C6.66667 10.3421 7.41667 11.0189 8.33333 11.0189H13.3333V12.523H1.66667Z" fill="black"/>
</svg>
